<?xml version="1.0" standalone="no"?>
<!DOCTYPE svg PUBLIC "-//W3C//DTD SVG 20010904//EN"
 "http://www.w3.org/TR/2001/REC-SVG-20010904/DTD/svg10.dtd">
<svg version="1.0" xmlns="http://www.w3.org/2000/svg"
 width="190.000000pt" height="190.000000pt" viewBox="0 0 190.000000 190.000000"
 preserveAspectRatio="xMidYMid meet">
<metadata>
Created by potrace 1.14, written by Peter Selinger 2001-2017
</metadata>
<g transform="translate(0.000000,190.000000) scale(0.100000,-0.100000)"
fill="#000000" stroke="none">
<path d="M0 950 l0 -950 950 0 950 0 0 950 0 950 -950 0 -950 0 0 -950z m638
528 c8 -8 12 -50 12 -122 l0 -109 36 46 c161 206 493 191 638 -28 120 -180 70
-431 -109 -549 -171 -114 -415 -74 -536 88 l-29 40 0 -290 c0 -212 -3 -293
-12 -302 -15 -15 -61 -15 -76 0 -17 17 -17 1209 0 1226 7 7 24 12 38 12 14 0
31 -5 38 -12z"/>
<path d="M905 1251 c-50 -22 -109 -86 -125 -136 -44 -133 68 -285 210 -285 70
0 147 43 184 103 54 88 46 184 -23 260 -44 49 -102 77 -161 77 -25 0 -63 -9
-85 -19z"/>
</g>
</svg>
